<svg width="572" height="397" fill="none" xmlns="http://www.w3.org/2000/svg"><path d="M180.512 397H89.74V108.035L.58 134.085v-68.75l171.607-59.35h8.325V397zm390.747 0H298.407v-59.082l125.684-132.129c30.973-35.27 46.46-63.289 46.46-84.058 0-16.829-3.67-29.63-11.011-38.403-7.34-8.773-17.993-13.16-31.958-13.16-13.786 0-24.976 5.91-33.569 17.726-8.594 11.637-12.891 26.228-12.891 43.774h-90.771c0-23.991 5.997-46.102 17.993-66.333 11.995-20.41 28.646-36.344 49.951-47.803C379.6 6.074 403.412.345 429.73.345c42.253 0 74.748 9.757 97.486 29.272 22.916 19.515 34.375 47.534 34.375 84.058 0 15.397-2.865 30.436-8.594 45.117-5.729 14.502-14.681 29.81-26.855 45.923-11.996 15.934-31.421 37.329-58.277 64.184l-50.488 58.277h153.882V397z" fill="#EFEFEE"/></svg>