<svg width="20" height="20" viewBox="0 0 19 20" fill="none" xmlns="http://www.w3.org/2000/svg"><path d="M9 .003c-1.607.02-5.06.283-6.992 2.054C.57 3.48.069 5.583.01 8.184c-.049 2.591-.107 7.458 4.588 8.784v2.018s-.03.808.505.973c.658.208 1.032-.413 1.658-1.08l1.167-1.319c3.212.267 5.673-.348 5.956-.44.652-.207 4.323-.676 4.923-5.544.616-5.027-.3-8.194-1.951-9.627h-.01c-.5-.458-2.503-1.917-6.98-1.934 0 0-.332-.022-.866-.013zm.055 1.413c.456-.003.733.016.733.016 3.79.01 5.598 1.15 6.025 1.534 1.39 1.191 2.108 4.047 1.583 8.243-.499 4.07-3.476 4.327-4.028 4.503-.234.075-2.401.608-5.131.433 0 0-2.033 2.451-2.67 3.083-.1.11-.217.143-.292.127-.108-.027-.14-.16-.134-.342l.02-3.35c-3.983-1.1-3.748-5.251-3.706-7.42.05-2.168.456-3.942 1.669-5.143 1.632-1.475 4.565-1.674 5.93-1.684h.001zm.3 2.168a.248.248 0 00-.25.248c0 .14.113.25.25.25a4.703 4.703 0 013.363 1.325c.909.882 1.352 2.067 1.369 3.617 0 .137.11.25.25.25v-.01a.25.25 0 00.251-.247 5.38 5.38 0 00-1.512-3.968c-.99-.967-2.245-1.466-3.72-1.466v.001zm-3.297.573a.784.784 0 00-.512.1h-.013c-.358.21-.68.475-.955.785-.228.264-.352.531-.384.788-.02.153-.007.306.039.452l.016.01c.257.756.593 1.482 1.004 2.166.528.96 1.179 1.849 1.935 2.643l.023.033.035.026.023.026.026.023c.798.758 1.69 1.41 2.653 1.943 1.1.599 1.769.882 2.17 1v.006c.117.035.224.052.332.052.342-.025.665-.164.92-.394.308-.275.57-.598.775-.957v-.006c.192-.362.127-.704-.15-.935a11.559 11.559 0 00-1.793-1.286c-.426-.23-.86-.09-1.036.143l-.374.472c-.192.235-.541.202-.541.202l-.01.007c-2.604-.665-3.298-3.298-3.298-3.298s-.033-.358.208-.541l.47-.378c.224-.182.38-.615.14-1.042a11.247 11.247 0 00-1.284-1.79.713.713 0 00-.42-.251v.001zm3.73.743c-.332 0-.332.501.003.501a3.146 3.146 0 012.21.957A2.914 2.914 0 0112.75 8.5a.252.252 0 00.25.248l.01.013a.253.253 0 00.252-.25c.022-.994-.287-1.827-.893-2.495-.61-.667-1.46-1.042-2.545-1.116h-.036zm.411 1.347c-.342-.01-.355.502-.016.512.825.042 1.225.459 1.277 1.315a.248.248 0 00.248.244h.01a.252.252 0 00.241-.267c-.059-1.116-.668-1.745-1.75-1.803h-.01z" fill="#000"/></svg>