<svg width="593" height="403" fill="none" xmlns="http://www.w3.org/2000/svg"><path d="M181.222 245.804c-19.515 17.545-41.358 26.318-65.528 26.318-35.449 0-63.558-11.995-84.326-35.986C10.6 212.145.216 180.097.216 139.993c0-25.065 5.819-48.34 17.456-69.824 11.637-21.484 27.93-38.493 48.877-51.025C87.675 6.61 110.95.344 136.373.344c25.781 0 49.056 6.536 69.824 19.605 20.948 12.89 37.24 31.242 48.877 55.054 11.638 23.633 17.635 50.936 17.993 81.909v34.644c0 43.147-8.504 80.566-25.512 112.256-16.83 31.689-40.91 56.038-72.242 73.046-31.331 17.009-67.854 25.513-109.57 25.513h-5.64v-72.51l17.188-.268c62.305-3.044 96.948-30.974 103.931-83.789zm-41.089-38.941c19.694 0 33.838-8.504 42.431-25.512v-37.598c0-25.065-4.207-43.595-12.622-55.59-8.414-11.996-19.783-17.994-34.106-17.994-12.712 0-23.364 6.803-31.958 20.41-8.594 13.607-12.89 30.078-12.89 49.414 0 20.41 4.386 36.703 13.158 48.877 8.773 11.996 20.769 17.993 35.987 17.993zm444.995-96.411c0 18.978-4.745 35.718-14.233 50.22-9.31 14.502-22.201 26.139-38.672 34.912 18.619 9.131 33.39 21.663 44.311 37.598 10.921 15.755 16.382 34.464 16.382 56.128 0 34.912-12.085 62.483-36.255 82.714-23.991 20.232-57.112 30.347-99.365 30.347-42.432 0-75.912-10.115-100.44-30.347-24.528-20.41-36.792-47.981-36.792-82.714 0-20.948 5.372-39.478 16.114-55.591 10.742-16.114 25.96-28.825 45.654-38.135-16.65-8.773-29.72-20.41-39.209-34.912-9.489-14.502-14.233-31.242-14.233-50.22 0-34.017 11.548-60.872 34.643-80.566C386.129 10.192 417.281.345 456.49.345c39.567 0 70.899 9.847 93.994 29.54 23.096 19.695 34.644 46.55 34.644 80.567zm-82.983 171.607c0-16.114-4.208-28.467-12.623-37.061-8.235-8.773-19.156-13.159-32.763-13.159s-24.618 4.386-33.032 13.159c-8.415 8.594-12.623 20.947-12.623 37.061 0 15.576 4.208 27.929 12.623 37.06 8.593 8.952 19.783 13.428 33.569 13.428 13.428 0 24.259-4.476 32.495-13.428 8.236-8.952 12.354-21.305 12.354-37.06zM456.49 70.169c-12.174 0-21.484 4.028-27.929 12.085-6.267 7.877-9.4 18.888-9.4 33.032 0 13.965 3.223 25.244 9.668 33.838 6.445 8.594 15.934 12.891 28.467 12.891 12.353 0 21.574-4.297 27.661-12.891 6.266-8.594 9.399-19.873 9.399-33.838s-3.222-24.975-9.668-33.032c-6.266-8.057-15.665-12.085-28.198-12.085z" fill="#EFEFEE"/></svg>