<svg width="64" height="66" fill="none" xmlns="http://www.w3.org/2000/svg"><path fill-rule="evenodd" clip-rule="evenodd" d="M30.435 35.846C13.207 20.91.219 33.135 0 50.939c11.877-13.286 22.97-6.786 30.435-15.093zm1.064 2.901c-2.16 26.84-18.762 5.058-30.842 14.459 6.729-9.83 19.56-6.659 30.842-14.459zm2.738 2.663c-2.754 6.422-1.11 11.955 5.508 15.553 4.288 2.33 8.779 4.93 13.004 8.403C45.55 58.2 43.767 45.929 34.236 41.41zm2.707-1.125C51.888 38.874 62.262 51.732 56.364 66c-8.56-7.04-8.701-19.595-19.42-25.715zm-5.398-7.325c.563-6.5-1.784-11.78-5.477-16.535C23.44 13.032 22.595 7.578 23.55 0c-9.513 13.016-5.554 25.35 7.997 32.96zM24.52 1.316c3.036 7.102 7.12 13.016 12.018 17.962 2.77 2.775 1.33 7.198-1.784 12.81.219-11.367-12.472-18.28-10.234-30.772z" fill="#00728F"/></svg>