<svg width="20" height="20" viewBox="0 0 19 19" fill="none" xmlns="http://www.w3.org/2000/svg"><g clip-path="url(#clip0_12571_47)"><path fill-rule="evenodd" clip-rule="evenodd" d="M19 9.5a9.5 9.5 0 11-19 0 9.5 9.5 0 0119 0zM9.84 7.013c-.923.384-2.77 1.18-5.54 2.386-.45.18-.685.354-.707.525-.036.29.327.404.819.559.067.02.137.042.208.066.485.158 1.138.342 1.477.35.308.005.651-.121 1.03-.38 2.588-1.748 3.923-2.63 4.007-2.65.06-.013.142-.03.197.02.056.048.05.142.045.167-.037.153-1.457 1.474-2.193 2.158a19.64 19.64 0 00-.649.62c-.451.434-.788.76.02 1.292.387.256.697.467 1.007.678.338.23.675.46 1.112.746.111.073.217.148.32.222.394.28.748.533 1.185.493.253-.024.516-.262.65-.974.314-1.683.933-5.328 1.076-6.83.009-.125.004-.25-.016-.374a.4.4 0 00-.136-.257.62.62 0 00-.368-.111c-.357.006-.905.197-3.544 1.294z" fill="#000"/></g><defs><clipPath id="clip0_12571_47"><path fill="#fff" d="M0 0h19v19H0z"/></clipPath></defs></svg>