<svg width="572" height="397" viewBox="0 0 572 397" fill="none" xmlns="http://www.w3.org/2000/svg">
<path d="M180.512 397H89.7402V108.035L0.580078 134.085V65.335L172.187 5.98438H180.512V397ZM571.259 397H298.407V337.918L424.091 205.789C455.064 170.519 470.551 142.5 470.551 121.731C470.551 104.902 466.881 92.1009 459.54 83.3281C452.2 74.5553 441.547 70.1689 427.582 70.1689C413.796 70.1689 402.606 76.0771 394.013 87.8936C385.419 99.5309 381.122 114.122 381.122 131.668H290.351C290.351 107.677 296.348 85.5661 308.344 65.335C320.339 44.9248 336.99 28.9906 358.295 17.5322C379.6 6.07389 403.412 0.344727 429.73 0.344727C471.983 0.344727 504.478 10.1022 527.216 29.6172C550.132 49.1322 561.591 77.1514 561.591 113.675C561.591 129.072 558.726 144.111 552.997 158.792C547.268 173.294 538.316 188.602 526.142 204.715C514.146 220.649 494.721 242.044 467.865 268.899L417.377 327.176H571.259V397Z" fill="#EFEFEE"/>
</svg>
