<svg width="593" height="403" viewBox="0 0 593 403" fill="none" xmlns="http://www.w3.org/2000/svg">
<path d="M181.222 245.804C161.707 263.349 139.864 272.122 115.694 272.122C80.2451 272.122 52.1364 260.127 31.3682 236.136C10.5999 212.145 0.21582 180.097 0.21582 139.993C0.21582 114.928 6.03451 91.6533 17.6719 70.1689C29.3092 48.6846 45.6016 31.6761 66.5488 19.1436C87.6751 6.611 110.95 0.344727 136.373 0.344727C162.154 0.344727 185.429 6.87956 206.197 19.9492C227.145 32.8398 243.437 51.1911 255.074 75.0029C266.712 98.6357 272.709 125.939 273.067 156.912V191.556C273.067 234.703 264.563 272.122 247.555 303.812C230.725 335.501 206.645 359.85 175.313 376.858C143.982 393.867 107.459 402.371 65.7432 402.371H60.1035V329.861L77.291 329.593C139.596 326.549 174.239 298.619 181.222 245.804ZM140.133 206.863C159.827 206.863 173.971 198.359 182.564 181.351V143.753C182.564 118.688 178.357 100.158 169.942 88.1621C161.528 76.1667 150.159 70.1689 135.836 70.1689C123.124 70.1689 112.472 76.9723 103.878 90.5791C95.2842 104.186 90.9873 120.657 90.9873 139.993C90.9873 160.403 95.3737 176.696 104.146 188.87C112.919 200.866 124.915 206.863 140.133 206.863ZM585.128 110.452C585.128 129.43 580.383 146.17 570.895 160.672C561.585 175.174 548.694 186.811 532.223 195.584C550.842 204.715 565.613 217.247 576.534 233.182C587.455 248.937 592.916 267.646 592.916 289.31C592.916 324.222 580.831 351.793 556.661 372.024C532.67 392.256 499.549 402.371 457.296 402.371C414.864 402.371 381.384 392.256 356.856 372.024C332.328 351.614 320.064 324.043 320.064 289.31C320.064 268.362 325.436 249.832 336.178 233.719C346.92 217.605 362.138 204.894 381.832 195.584C365.182 186.811 352.112 175.174 342.623 160.672C333.134 146.17 328.39 129.43 328.39 110.452C328.39 76.4352 339.938 49.5798 363.033 29.8857C386.129 10.1917 417.281 0.344727 456.49 0.344727C496.057 0.344727 527.389 10.1917 550.484 29.8857C573.58 49.5798 585.128 76.4352 585.128 110.452ZM502.145 282.059C502.145 265.945 497.937 253.592 489.522 244.998C481.287 236.225 470.366 231.839 456.759 231.839C443.152 231.839 432.141 236.225 423.727 244.998C415.312 253.592 411.104 265.945 411.104 282.059C411.104 297.635 415.312 309.988 423.727 319.119C432.32 328.071 443.51 332.547 457.296 332.547C470.724 332.547 481.555 328.071 489.791 319.119C498.027 310.167 502.145 297.814 502.145 282.059ZM456.49 70.1689C444.316 70.1689 435.006 74.1973 428.561 82.2539C422.294 90.1315 419.161 101.142 419.161 115.286C419.161 129.251 422.384 140.53 428.829 149.124C435.274 157.718 444.763 162.015 457.296 162.015C469.649 162.015 478.87 157.718 484.957 149.124C491.223 140.53 494.356 129.251 494.356 115.286C494.356 101.321 491.134 90.3105 484.688 82.2539C478.422 74.1973 469.023 70.1689 456.49 70.1689Z" fill="#EFEFEE"/>
</svg>
