<svg width="64" height="66" viewBox="0 0 64 66" fill="none" xmlns="http://www.w3.org/2000/svg">
<path fill-rule="evenodd" clip-rule="evenodd" d="M30.4349 35.8459C13.2067 20.9114 0.219068 33.1348 0 50.9388C11.8766 37.6532 22.9709 44.1533 30.4349 35.8459ZM31.4989 38.7471C29.3395 65.5879 12.7373 43.8046 0.657205 53.2059C7.38574 43.3765 20.2169 46.5473 31.4989 38.7471Z" fill="#00728F"/>
<path fill-rule="evenodd" clip-rule="evenodd" d="M34.2373 41.4106C31.4833 47.8315 33.1263 53.3645 39.7453 56.9633C44.0327 59.2939 48.5236 61.8939 52.7485 65.3659C45.5506 58.1999 43.7667 45.929 34.2373 41.4106ZM36.9443 40.285C51.8879 38.874 62.2624 51.7315 56.3632 66.0001C47.8039 58.9609 47.663 46.4046 36.9443 40.285Z" fill="#00728F"/>
<path fill-rule="evenodd" clip-rule="evenodd" d="M31.5458 32.9604C32.1091 26.4602 29.762 21.1809 26.0691 16.4247C23.4403 13.0319 22.5953 7.57819 23.5498 0C14.036 13.0161 17.9949 25.3505 31.5458 32.9604ZM24.52 1.31588C27.5557 8.41845 31.6397 14.332 36.5375 19.2784C39.3071 22.0528 37.8675 26.4761 34.7536 32.0884C34.9727 20.7211 22.2824 13.8088 24.52 1.31588Z" fill="#00728F"/>
</svg>
