<svg width="11" height="18" viewBox="0 0 11 18" fill="none" xmlns="http://www.w3.org/2000/svg">
<path d="M0.232081 9.49395L9.65276 17.7964C9.96142 18.0683 10.4611 18.0679 10.7693 17.795C11.0772 17.5223 11.0764 17.0804 10.7677 16.8083L1.90776 8.99997L10.768 1.19165C11.0767 0.919545 11.0775 0.477948 10.7696 0.205137C10.6151 0.0683797 10.4128 2.38665e-07 10.2104 2.38665e-07C10.0086 2.38665e-07 9.80699 0.0679223 9.6528 0.20373L0.232081 8.50602C0.0834205 8.63673 2.18825e-09 8.81462 2.18825e-09 8.99997C2.18825e-09 9.18531 0.0836592 9.36299 0.232081 9.49395Z" fill="#2F869D"/>
</svg>
